<svg width="16" height="16" viewBox="0 0 16 16" fill="none" xmlns="http://www.w3.org/2000/svg">
<path opacity="0.5" d="M12.6523 9.68807C12.1266 9.57499 11.7108 9.81905 11.3425 10.0322C10.9654 10.2519 10.2484 10.8335 9.83736 10.6847C7.73302 9.81824 5.75384 7.97637 4.89709 5.8636C4.74608 5.44381 5.32506 4.72219 5.54308 4.34064C5.75465 3.97129 5.99367 3.5515 5.88465 3.02188C5.78614 2.54596 4.51191 0.924564 4.06132 0.481182C3.76417 0.188305 3.45974 0.0272235 3.14724 0.00119007C1.97233 -0.0492497 0.660143 1.51845 0.430006 1.8935C-0.146547 2.69321 -0.143317 3.75733 0.439696 5.04761C1.84474 8.51331 7.15889 13.7436 10.6376 15.2015C11.2795 15.5017 11.8666 15.6522 12.3939 15.6522C12.9099 15.6522 13.3694 15.5082 13.7642 15.2226C14.0622 15.051 15.6941 13.6736 15.6513 12.4671C15.6255 12.1596 15.4648 11.8521 15.1757 11.5543C14.7356 11.0996 13.1247 9.78732 12.6523 9.68807Z" fill="black"/>
</svg>
