<svg width="12" height="12" viewBox="0 0 12 12" fill="none" xmlns="http://www.w3.org/2000/svg">
<path d="M11.736 0.263992C11.384 -0.0879975 10.8133 -0.0879975 10.4613 0.263992L6 4.72533L1.53866 0.263992C1.18667 -0.0879975 0.615982 -0.0879975 0.263992 0.263992C-0.0879975 0.615982 -0.0879975 1.18667 0.263992 1.53866L4.72533 6L0.263992 10.4613C-0.0879975 10.8133 -0.0879975 11.384 0.263992 11.736C0.615982 12.088 1.18667 12.088 1.53866 11.736L6 7.27467L10.4613 11.736C10.8133 12.088 11.384 12.088 11.736 11.736C12.088 11.384 12.088 10.8133 11.736 10.4613L7.27467 6L11.736 1.53866C12.088 1.18667 12.088 0.615982 11.736 0.263992Z" fill="#5D6568"/>
</svg>
